<svg width="256" height="64" viewBox="0 0 256 64" fill="none" xmlns="http://www.w3.org/2000/svg">
  <g fill="#3F2618">
    <path d="M7 47L15 44L20 32H38L45 24H56L61 28L58 34L51 34L48 40H37L36 49H31L31 39H25L23 49H18L18 38L13 47H7Z"/>
    <path d="M22 24L18 17L22 16L26 23L22 24Z"/>
    <path d="M20 21L15 14L19 12L24 20L20 21Z"/>
    <path d="M36 33L48 20L52 20L44 32L36 33Z"/>
    <path d="M8 38L3 30L5 28L12 36L8 38Z"/>
  </g>
  <g fill="#3F2618" transform="translate(64 0)">
    <path d="M6 47L13 44L19 31H38L45 24H56L61 28L58 34L51 34L48 40H36L33 49H28L30 38H24L20 49H15L19 37L12 47H6Z"/>
    <path d="M21 24L18 17L22 16L26 23L21 24Z"/>
    <path d="M19 21L14 14L18 12L23 20L19 21Z"/>
    <path d="M36 33L48 20L52 20L44 32L36 33Z"/>
    <path d="M9 37L2 29L4 27L12 35L9 37Z"/>
  </g>
  <g fill="#3F2618" transform="translate(128 0)">
    <path d="M8 47L16 44L21 31H39L46 24H57L62 28L59 34L52 34L49 40H38L40 49H35L34 39H28L30 49H25L24 38L14 47H8Z"/>
    <path d="M23 24L19 17L23 16L27 23L23 24Z"/>
    <path d="M21 21L16 14L20 12L25 20L21 21Z"/>
    <path d="M37 33L49 20L53 20L45 32L37 33Z"/>
    <path d="M10 38L4 30L6 28L13 36L10 38Z"/>
  </g>
  <g fill="#3F2618" transform="translate(192 0)">
    <path d="M8 41L16 38L21 26H40L46 19H57L62 23L59 28L53 28L49 34H40L35 41H30L35 32H28L24 41H19L22 31L14 41H8Z"/>
    <path d="M24 19L20 12L24 11L28 18L24 19Z"/>
    <path d="M22 16L17 9L21 7L26 15L22 16Z"/>
    <path d="M38 28L50 15H54L46 27L38 28Z"/>
    <path d="M10 31L4 23L6 21L13 29L10 31Z"/>
    <path d="M18 41L13 49H18L23 41H18Z"/>
    <path d="M26 41L23 49H28L31 41H26Z"/>
    <path d="M35 38L42 47H47L39 37L35 38Z"/>
    <path d="M43 35L49 44H54L46 34L43 35Z"/>
  </g>
</svg>
