<?xml version="1.0" encoding="iso-8859-1"?>
<svg height="800px" width="800px" version="1.1" id="Layer_1" xmlns="http://www.w3.org/2000/svg" xmlns:xlink="http://www.w3.org/1999/xlink" 
	 viewBox="0 0 512.001 512.001" xml:space="preserve">
<path style="fill:#D7DEED;" d="M496.593,121.719H14.132c-4.422,0-8.008-3.585-8.008-8.008V95.348c0-4.422,3.585-8.008,8.008-8.008
	h482.462c4.422,0,8.008,3.585,8.008,8.008v18.363C504.601,118.134,501.016,121.719,496.593,121.719z"/>
<path style="fill:#C7CFE2;" d="M83.474,104.53c0,6.037,1.091,11.804,2.997,17.188h97.139c1.906-5.384,2.997-11.153,2.997-17.188
	c0-6.037-1.091-11.804-2.997-17.188H86.471C84.565,92.725,83.474,98.493,83.474,104.53z"/>
<path style="fill:#C3E678;" d="M109.258,121.719H14.132c-4.422,0-8.008-3.585-8.008-8.008V95.348c0-4.422,3.585-8.008,8.008-8.008
	h95.125v34.378H109.258z"/>
<path style="fill:#A5D76E;" d="M36.665,87.341c-1.906,5.384-2.997,11.153-2.997,17.188c0,6.037,1.091,11.804,2.997,17.188h31.38
	V87.341H36.665z"/>
<path style="fill:#D7DEED;" d="M496.593,256.848H14.132c-4.422,0-8.008-3.585-8.008-8.008v-18.363c0-4.422,3.585-8.008,8.008-8.008
	h482.462c4.422,0,8.008,3.585,8.008,8.008v18.363C504.601,253.263,501.016,256.848,496.593,256.848z"/>
<path style="fill:#C7CFE2;" d="M363.983,239.659c0,6.037,1.091,11.804,2.998,17.188h97.138c1.906-5.384,2.998-11.153,2.998-17.188
	c0-6.037-1.091-11.804-2.998-17.188h-97.138C365.074,227.854,363.983,233.623,363.983,239.659z"/>
<path style="fill:#FFD782;" d="M384.279,256.848H14.132c-4.422,0-8.008-3.585-8.008-8.008v-18.363c0-4.422,3.585-8.008,8.008-8.008
	h370.147V256.848z"/>
<path style="fill:#FFC36E;" d="M361.493,222.47c-1.906,5.384-2.997,11.153-2.997,17.188c0,6.037,1.091,11.804,2.997,17.188h31.38
	v-34.378L361.493,222.47L361.493,222.47z"/>
<path style="fill:#D7DEED;" d="M496.593,398.156H14.132c-4.422,0-8.008-3.585-8.008-8.008v-18.363c0-4.422,3.585-8.008,8.008-8.008
	h482.462c4.422,0,8.008,3.585,8.008,8.008v18.363C504.601,394.571,501.016,398.156,496.593,398.156z"/>
<path style="fill:#C7CFE2;" d="M203.796,380.967c0,6.037,1.091,11.804,2.997,17.188h97.139c1.906-5.384,2.997-11.153,2.997-17.188
	s-1.091-11.804-2.997-17.188h-97.139C204.887,369.162,203.796,374.93,203.796,380.967z"/>
<path style="fill:#FF6464;" d="M229.579,398.156H14.132c-4.422,0-8.008-3.585-8.008-8.008v-18.363c0-4.422,3.585-8.008,8.008-8.008
	h215.447V398.156z"/>
<path style="fill:#D2555A;" d="M206.793,363.778c-1.906,5.384-2.997,11.153-2.997,17.188s1.091,11.804,2.997,17.188h31.38v-34.377
	H206.793z"/>
<path style="fill:#C7CFE2;" d="M269.702,380.214c9.651,22.79-6.983,46.293-23.525,34.151c-2.29-1.681-4.048-4.003-5.156-6.619
	c-9.651-22.79,6.983-46.293,23.525-34.151C266.836,375.275,268.595,377.597,269.702,380.214z"/>
<g>
	<path style="fill:#EFF2FA;" d="M256.881,438.128L256.881,438.128c-17.066,0-31.03-13.963-31.03-31.03v-32.138
		c0-17.066,13.963-31.03,31.03-31.03l0,0c17.066,0,31.03,13.963,31.03,31.03v32.138
		C287.911,424.165,273.947,438.128,256.881,438.128z"/>
	<path style="fill:#EFF2FA;" d="M417.034,302.892L417.034,302.892c-17.066,0-31.03-13.963-31.03-31.03v-32.138
		c0-17.066,13.963-31.03,31.03-31.03l0,0c17.066,0,31.03,13.963,31.03,31.03v32.138C448.064,288.929,434.1,302.892,417.034,302.892z
		"/>
	<path style="fill:#EFF2FA;" d="M79.711,166.869L79.711,166.869c-17.066,0-31.03-13.963-31.03-31.03v-32.138
		c0-17.066,13.963-31.03,31.03-31.03l0,0c17.066,0,31.03,13.963,31.03,31.03v32.138C110.741,152.905,96.778,166.869,79.711,166.869z
		"/>
</g>
<path d="M143.637,127.423c0.005,0,0.01,0,0.015,0l360.344-0.678c4.146-0.008,7.501-3.375,7.493-7.521
	c-0.008-4.142-3.367-7.493-7.507-7.493c-0.005,0-0.01,0-0.015,0l-360.344,0.678c-4.146,0.008-7.501,3.375-7.493,7.521
	C136.138,124.071,139.498,127.423,143.637,127.423z"/>
<path d="M7.507,127.678c0.005,0,0.01,0,0.015,0l32.531-0.061l0.016,8.508c0.02,10.526,4.161,20.437,11.66,27.909
	c7.482,7.453,17.378,11.555,27.876,11.555c0.025,0,0.051,0,0.076,0c10.526-0.02,20.437-4.161,27.908-11.66
	c7.471-7.499,11.575-17.426,11.555-27.951l-0.06-32.031c-0.041-21.777-17.77-39.465-39.539-39.465c-0.024,0-0.049,0-0.073,0
	C65.463,64.509,52.373,72.1,45.31,84.295c-2.078,3.587-0.855,8.181,2.733,10.259c3.588,2.078,8.181,0.856,10.259-2.734
	c4.393-7.584,12.516-12.306,21.198-12.323c0.016,0,0.03,0,0.046,0c13.501,0,24.498,10.971,24.523,24.477l0.06,32.032
	c0.012,6.514-2.536,12.667-7.178,17.327c-4.64,4.657-10.784,7.23-17.3,7.242c-0.016,0-0.031,0-0.047,0
	c-6.497,0-12.633-2.548-17.28-7.178c-4.658-4.64-7.231-10.784-7.243-17.299l-0.03-16.015c-0.008-4.142-3.367-7.493-7.507-7.493l0,0
	c-0.005,0-0.01,0-0.014,0l0,0l-40.038,0.075c-4.146,0.008-7.501,3.375-7.493,7.521C0.008,124.327,3.367,127.678,7.507,127.678z"/>
<path d="M504.238,247.861c-0.005,0-0.01,0-0.015,0l-24.023,0.045c-4.146,0.008-7.501,3.375-7.493,7.521
	c0.008,4.142,3.367,7.493,7.507,7.493c0.005,0,0.01,0,0.015,0l24.023-0.045c4.146-0.008,7.501-3.375,7.493-7.521
	C511.737,251.212,508.378,247.861,504.238,247.861z"/>
<path d="M7.762,263.809c0.004,0,0.01,0,0.014,0l368.853-0.694l0.016,8.508c0.02,10.526,4.161,20.437,11.66,27.909
	c7.482,7.453,17.379,11.555,27.876,11.555c0.025,0,0.051,0,0.076,0c10.525-0.02,20.437-4.161,27.908-11.66
	c7.471-7.499,11.575-17.426,11.555-27.951l-0.06-32.031c-0.02-10.527-4.161-20.438-11.66-27.909
	c-7.482-7.453-17.379-11.555-27.876-11.555c-0.025,0-0.051,0-0.076,0c-14.008,0.025-27.099,7.616-34.163,19.81
	c-2.078,3.587-0.855,8.181,2.733,10.259c3.587,2.083,8.181,0.856,10.259-2.732c4.394-7.585,12.516-12.307,21.198-12.323
	c6.501,0.019,12.668,2.536,17.327,7.177c4.658,4.641,7.231,10.784,7.243,17.3l0.06,32.031c0.012,6.515-2.536,12.668-7.178,17.328
	c-4.64,4.657-10.784,7.23-17.3,7.242c-0.016,0-0.031,0-0.047,0c-6.497,0-12.633-2.548-17.281-7.178
	c-4.658-4.64-7.23-10.783-7.242-17.3l-0.03-16.015c-0.008-4.141-3.367-7.492-7.507-7.492h-0.001c-0.005,0-0.01,0-0.014,0l0,0
	l-376.36,0.708c-4.146,0.008-7.501,3.375-7.493,7.521C0.263,260.457,3.622,263.809,7.762,263.809z"/>
<path d="M504.494,383.992c-0.005,0-0.01,0-0.015,0l-184.174,0.346c-4.146,0.008-7.501,3.375-7.493,7.521
	c0.008,4.142,3.367,7.493,7.507,7.493c0.005,0,0.01,0,0.015,0l184.174-0.346c4.146-0.008,7.501-3.375,7.493-7.521
	C511.992,387.343,508.633,383.992,504.494,383.992z"/>
<path d="M79.605,143.558c0.005,0,0.01,0,0.015,0c4.146-0.008,7.501-3.375,7.493-7.521l-0.06-32.031
	c-0.008-4.142-3.367-7.493-7.507-7.493c-0.005,0-0.01,0-0.015,0c-4.146,0.008-7.501,3.375-7.493,7.521l0.06,32.031
	C72.107,140.206,75.466,143.558,79.605,143.558z"/>
<path d="M416.183,279.056c0.005,0,0.01,0,0.015,0c4.146-0.008,7.501-3.375,7.493-7.521l-0.06-32.031
	c-0.008-4.142-3.367-7.493-7.507-7.493c-0.005,0-0.01,0-0.015,0c-4.146,0.008-7.501,3.375-7.493,7.521l0.06,32.031
	C408.684,275.704,412.043,279.056,416.183,279.056z"/>
<path d="M284.104,347.967c-7.482-7.453-17.379-11.555-27.877-11.555c-0.025,0-0.051,0-0.076,0
	c-14.008,0.026-27.099,7.617-34.162,19.811c-2.078,3.588-0.855,8.181,2.733,10.259c3.587,2.08,8.181,0.856,10.259-2.732
	c4.394-7.584,12.516-12.307,21.198-12.324c0.016,0,0.031,0,0.047,0c6.497,0,12.633,2.548,17.28,7.178
	c4.658,4.641,7.231,10.784,7.243,17.3l0.06,32.032c0.012,6.514-2.536,12.667-7.177,17.327c-4.641,4.657-10.784,7.23-17.3,7.242
	c-0.016,0-0.031,0-0.047,0c-6.497,0-12.633-2.548-17.281-7.178c-4.658-4.64-7.23-10.783-7.242-17.3l-0.03-16.015
	c-0.008-4.141-3.367-7.492-7.507-7.492c-0.001,0-0.001,0-0.002,0c-0.004,0-0.009,0-0.013,0c0,0-0.001,0-0.002,0L8.005,384.923
	c-4.146,0.008-7.501,3.375-7.493,7.521c0.008,4.142,3.367,7.493,7.507,7.493c0.005,0,0.01,0,0.015,0l208.7-0.391l0.016,8.508
	c0.02,10.526,4.161,20.437,11.66,27.909c7.482,7.453,17.379,11.555,27.877,11.555c0.025,0,0.051,0,0.076,0
	c21.801-0.041,39.504-17.811,39.463-39.611l-0.06-32.031C295.743,365.35,291.603,355.438,284.104,347.967z"/>
<path d="M256.286,415.488c0.005,0,0.01,0,0.015,0c4.146-0.008,7.501-3.375,7.493-7.522l-0.061-32.031
	c-0.008-4.141-3.367-7.492-7.506-7.492c-0.005,0-0.01,0-0.015,0c-4.146,0.008-7.501,3.375-7.493,7.522l0.061,32.031
	C248.787,412.135,252.146,415.488,256.286,415.488z"/>
</svg>