<?xml version="1.0" encoding="iso-8859-1"?>
<svg height="800px" width="800px" version="1.1" id="Layer_1" xmlns="http://www.w3.org/2000/svg" xmlns:xlink="http://www.w3.org/1999/xlink" 
	 viewBox="0 0 512 512" xml:space="preserve">
<g>
	<path style="fill:#ABB8B9;" d="M229.757,177.638l49.066,28.33l1.244,0.773l49.154,28.377c11.547,6.637,15.529,21.376,8.895,32.925
		c-2.267,3.945-5.48,7.005-9.184,9.062l-50.129,28.942l0.021,0.043l-50.485,29.149c-11.551,6.689-26.336,2.748-33.023-8.802
		c-2.211-3.82-3.262-7.991-3.258-12.11h-0.052v-58.299V197.73c0-13.376,10.844-24.223,24.221-24.223
		C221.238,173.505,225.894,175.024,229.757,177.638L229.757,177.638z M501.333,256.002c0-135.495-109.84-245.334-245.334-245.334
		S10.666,120.507,10.666,256.002s109.839,245.334,245.332,245.334C391.493,501.337,501.333,391.496,501.333,256.002z"/>
	<path style="fill:#D12D4E;" d="M278.823,205.967l-49.066-28.33c-3.863-2.612-8.518-4.132-13.532-4.132
		c-13.377,0-24.221,10.847-24.221,24.223v58.298v58.299h0.052c-0.004,4.118,1.045,8.29,3.258,12.11
		c6.689,11.55,21.473,15.49,33.023,8.802l50.485-29.149l-0.021-0.043l50.129-28.942c3.705-2.057,6.917-5.117,9.184-9.062
		c6.634-11.55,2.652-26.288-8.895-32.925l-49.154-28.377L278.823,205.967z"/>
</g>
<g>
	<path style="fill:#000003;" d="M256,0C114.841,0,0.001,114.842,0.001,256.002C0.001,397.16,114.841,512,256,512
		c141.158,0,255.999-114.84,255.999-255.998C512.001,114.842,397.159,0,256,0z M256,490.665
		c-129.395,0-234.664-105.269-234.664-234.663C21.336,126.607,126.605,21.335,256,21.335c129.394,0,234.664,105.271,234.664,234.667
		C490.665,385.396,385.394,490.665,256,490.665z"/>
	<path style="fill:#000003;" d="M270.396,85.941c5.872,0.498,11.033-3.86,11.53-9.731c0.497-5.87-3.86-11.032-9.731-11.528
		c-5.373-0.454-10.822-0.685-16.195-0.685c-105.87,0-192.001,86.133-192.001,192.005c0,5.892,4.775,10.668,10.668,10.668
		c5.892,0,10.668-4.776,10.668-10.668c0-94.108,76.561-170.67,170.666-170.67C260.774,85.332,265.618,85.537,270.396,85.941z"/>
	<path style="fill:#000003;" d="M437.333,245.334c-5.891,0-10.668,4.776-10.668,10.668c0,94.105-76.562,170.665-170.667,170.665
		c-4.822,0-9.663-0.205-14.388-0.608c-5.878-0.5-11.036,3.851-11.536,9.721c-0.501,5.87,3.851,11.036,9.721,11.537
		c5.327,0.454,10.778,0.686,16.203,0.686c105.87,0,192.002-86.131,192.002-192C448.001,250.111,443.224,245.334,437.333,245.334z"/>
	<path style="fill:#000003;" d="M299.525,90.979l0.625,0.164c0.931,0.252,1.867,0.372,2.787,0.372c4.701,0,9.007-3.132,10.292-7.889
		c1.535-5.687-1.829-11.543-7.517-13.081c-0.308-0.083-0.617-0.165-0.925-0.244c-5.707-1.453-11.516,1.997-12.969,7.706
		C290.365,83.719,293.816,89.525,299.525,90.979z"/>
	<path style="fill:#000003;" d="M212.584,421.054l-0.886-0.234c-5.706-1.455-11.517,1.997-12.969,7.706
		c-1.454,5.709,1.996,11.516,7.706,12.97l0.662,0.175c0.92,0.244,1.842,0.362,2.75,0.362c4.716,0,9.031-3.153,10.302-7.927
		C221.664,428.412,218.277,422.569,212.584,421.054z"/>
	<path style="fill:#000003;" d="M233.672,344.476l50.485-29.149c0.299-0.173,0.586-0.357,0.862-0.554l49.175-28.391
		c5.478-3.059,10.029-7.56,13.171-13.023c9.555-16.631,3.801-37.936-12.811-47.483l-48.899-28.228
		c-0.507-0.329-1.01-0.642-1.498-0.92l-48.769-28.157c-5.69-3.752-12.307-5.734-19.163-5.734c-19.238,0-34.888,15.651-34.888,34.89
		v116.598c0,0.426,0.025,0.845,0.074,1.258c0.204,5.676,1.808,11.25,4.671,16.198c6.209,10.721,17.768,17.381,30.167,17.381
		C222.352,349.163,228.381,347.54,233.672,344.476z M204.546,321.092c-1.194-2.063-1.825-4.398-1.822-6.754
		c0.001-0.353-0.018-0.705-0.052-1.053V197.728c0-7.475,6.08-13.555,13.553-13.555c2.718,0,5.329,0.796,7.554,2.3
		c0.21,0.142,0.425,0.275,0.643,0.402l49.118,28.359c0.228,0.13,0.444,0.273,0.661,0.416c0.175,0.114,0.352,0.224,0.531,0.329
		l49.171,28.386c6.43,3.695,8.656,11.935,4.961,18.364c-1.221,2.124-2.989,3.869-5.112,5.047c-0.052,0.029-0.106,0.059-0.158,0.09
		l-50.13,28.942c-0.299,0.173-0.587,0.357-0.862,0.555l-49.613,28.644c-2.058,1.192-4.39,1.822-6.742,1.822
		C211.436,327.828,206.953,325.247,204.546,321.092z"/>
</g>
</svg>