<?xml version="1.0" encoding="iso-8859-1"?>
<svg height="800px" width="800px" version="1.1" id="Layer_1" xmlns="http://www.w3.org/2000/svg" xmlns:xlink="http://www.w3.org/1999/xlink" 
	 viewBox="0 0 511.999 511.999" xml:space="preserve">
<g>
	<path style="fill:#ABB8B9;" d="M171.154,312.847V199.156c0-15.4,12.599-28,27.998-28h113.693c15.398,0,27.998,12.601,27.998,28
		v113.691c0,15.4-12.599,28-27.998,28H199.152C183.753,340.848,171.154,328.247,171.154,312.847L171.154,312.847z M501.329,256.004
		c0-135.494-109.838-245.332-245.33-245.332c-135.495,0-245.332,109.839-245.332,245.332c0,135.489,109.838,245.329,245.332,245.329
		C391.491,501.333,501.329,391.493,501.329,256.004z"/>
	<path style="fill:#D12D4E;" d="M171.154,199.156v113.691c0,15.4,12.599,28,27.998,28h113.693c15.398,0,27.998-12.601,27.998-28
		V199.156c0-15.4-12.599-28-27.998-28H199.152C183.753,171.156,171.154,183.757,171.154,199.156z"/>
</g>
<g>
	<path style="fill:#000003;" d="M255.998,0C114.841,0,0.001,114.84,0.001,255.999s114.84,255.999,255.997,255.999
		c141.159,0,255.999-114.84,255.999-255.999S397.159,0,255.998,0z M255.998,490.665c-129.394,0-234.662-105.271-234.662-234.665
		S126.605,21.335,255.998,21.335c129.395,0,234.665,105.271,234.665,234.665S385.393,490.665,255.998,490.665z"/>
	<path style="fill:#000003;" d="M270.393,85.944c5.876,0.513,11.032-3.857,11.53-9.728c0.498-5.87-3.856-11.033-9.728-11.53
		C266.827,64.231,261.377,64,255.999,64c-105.869,0-192,86.132-192,192.003c0,5.892,4.776,10.667,10.667,10.667
		c5.891,0,10.667-4.776,10.667-10.667c0-94.107,76.56-170.668,170.665-170.668C260.777,85.335,265.619,85.54,270.393,85.944z"/>
	<path style="fill:#000003;" d="M437.33,245.336c-5.891,0-10.667,4.777-10.667,10.667c0,94.105-76.56,170.664-170.663,170.664
		c-4.779,0-9.622-0.205-14.396-0.609c-5.88-0.495-11.032,3.857-11.53,9.728c-0.498,5.87,3.856,11.033,9.728,11.53
		c5.369,0.456,10.82,0.686,16.199,0.686c105.869,0,191.998-86.13,191.998-191.999C447.997,250.113,443.222,245.336,437.33,245.336z"
		/>
	<path style="fill:#000003;" d="M299.412,90.951l0.691,0.186c0.946,0.26,1.898,0.384,2.833,0.384c4.684,0,8.979-3.11,10.28-7.845
		c1.561-5.68-1.779-11.552-7.461-13.112l-0.857-0.231c-5.691-1.505-11.537,1.873-13.053,7.566
		C290.332,83.591,293.72,89.435,299.412,90.951z"/>
	<path style="fill:#000003;" d="M212.584,421.054l-0.691-0.186c-5.681-1.564-11.553,1.779-13.113,7.46
		c-1.561,5.68,1.779,11.552,7.461,13.112l0.857,0.232c0.92,0.243,1.842,0.362,2.75,0.362c4.717,0,9.032-3.153,10.303-7.928
		C221.664,428.412,218.276,422.569,212.584,421.054z"/>
	<path style="fill:#000003;" d="M312.844,351.516c21.32,0,38.665-17.346,38.665-38.667V199.156
		c0-21.321-17.345-38.667-38.665-38.667H199.152c-21.32,0-38.665,17.346-38.665,38.667v113.691
		c0,21.321,17.345,38.667,38.665,38.667h113.693V351.516z M181.821,312.847V199.156c0-9.557,7.774-17.332,17.33-17.332h113.693
		c9.556,0,17.33,7.775,17.33,17.332v113.691c0,9.557-7.774,17.332-17.33,17.332H199.152
		C189.596,330.181,181.821,322.404,181.821,312.847z"/>
</g>
</svg>